<svg xmlns="http://www.w3.org/2000/svg" width="1280" height="1024" viewBox="0 0 1280 1024">
  <defs>
    <!-- Glass / gradients -->
    <linearGradient id="app-panel-gradient" x1="0" y1="0" x2="0" y2="1">
      <stop offset="0" stop-color="#ffffff"/>
      <stop offset="1" stop-color="#e5e7eb"/>
    </linearGradient>

    <linearGradient id="status-bar-gradient" x1="0" y1="0" x2="0" y2="1">
      <stop offset="0" stop-color="#ffffff" stop-opacity="0.85"/>
      <stop offset="1" stop-color="#e5e7eb" stop-opacity="0.7"/>
    </linearGradient>

    <linearGradient id="status-tag-gradient" x1="0" y1="0" x2="0" y2="1">
      <stop offset="0" stop-color="#ffffff" stop-opacity="0.9"/>
      <stop offset="1" stop-color="#e5e7eb" stop-opacity="0.8"/>
    </linearGradient>

    <linearGradient id="sidebar-bg-gradient" x1="0" y1="0" x2="0" y2="1">
      <stop offset="0" stop-color="#ffffff" stop-opacity="0.9"/>
      <stop offset="1" stop-color="#d1d5db" stop-opacity="0.8"/>
    </linearGradient>

    <linearGradient id="sidebar-button-gradient" x1="0" y1="0" x2="0" y2="1">
      <stop offset="0" stop-color="#ffffff" stop-opacity="0.9"/>
      <stop offset="1" stop-color="#e5e7eb" stop-opacity="0.9"/>
    </linearGradient>

    <linearGradient id="sidebar-button-active-gradient" x1="0" y1="0" x2="0" y2="1">
      <stop offset="0" stop-color="#8b5cf6"/>
      <stop offset="1" stop-color="#3b82f6"/>
    </linearGradient>

    <linearGradient id="tab-primary-inactive-gradient" x1="0" y1="0" x2="0" y2="1">
      <stop offset="0" stop-color="#ffffff" stop-opacity="0.9"/>
      <stop offset="1" stop-color="#e5e7eb" stop-opacity="0.9"/>
    </linearGradient>

    <linearGradient id="tab-primary-active-gradient" x1="0" y1="0" x2="0" y2="1">
      <stop offset="0" stop-color="#8b5cf6"/>
      <stop offset="1" stop-color="#3b82f6"/>
    </linearGradient>

    <linearGradient id="tab-secondary-inactive-gradient" x1="0" y1="0" x2="0" y2="1">
      <stop offset="0" stop-color="#ffffff" stop-opacity="0.85"/>
      <stop offset="1" stop-color="#e5e7eb" stop-opacity="0.9"/>
    </linearGradient>

    <linearGradient id="tab-secondary-active-gradient" x1="0" y1="0" x2="0" y2="1">
      <stop offset="0" stop-color="#e5e7eb"/>
      <stop offset="1" stop-color="#cbd5f5"/>
    </linearGradient>

    <linearGradient id="tile-olive-gradient" x1="0" y1="0" x2="0" y2="1">
      <stop offset="0" stop-color="#8b5cf6"/>
      <stop offset="1" stop-color="#3b82f6"/>
    </linearGradient>

    <linearGradient id="tile-purple-gradient" x1="0" y1="0" x2="0" y2="1">
      <stop offset="0" stop-color="#ec4899"/>
      <stop offset="1" stop-color="#a855f7"/>
    </linearGradient>

    <linearGradient id="tile-blue-gradient" x1="0" y1="0" x2="0" y2="1">
      <stop offset="0" stop-color="#38bdf8"/>
      <stop offset="1" stop-color="#6366f1"/>
    </linearGradient>

    <linearGradient id="tile-teal-gradient" x1="0" y1="0" x2="0" y2="1">
      <stop offset="0" stop-color="#22d3ee"/>
      <stop offset="1" stop-color="#0ea5e9"/>
    </linearGradient>

    <linearGradient id="tile-red-gradient" x1="0" y1="0" x2="0" y2="1">
      <stop offset="0" stop-color="#f97316"/>
      <stop offset="1" stop-color="#ef4444"/>
    </linearGradient>

    <linearGradient id="tile-disabled-gradient" x1="0" y1="0" x2="0" y2="1">
      <stop offset="0" stop-color="#e5e7eb"/>
      <stop offset="1" stop-color="#cbd5f5"/>
    </linearGradient>

    <linearGradient id="right-panel-bg-gradient" x1="0" y1="0" x2="0" y2="1">
      <stop offset="0" stop-color="#ffffff" stop-opacity="0.9"/>
      <stop offset="1" stop-color="#e5e7eb" stop-opacity="0.9"/>
    </linearGradient>

    <linearGradient id="call-row-info-gradient" x1="0" y1="0" x2="0" y2="1">
      <stop offset="0" stop-color="#6366f1"/>
      <stop offset="1" stop-color="#0f172a"/>
    </linearGradient>

    <linearGradient id="call-row-success-gradient" x1="0" y1="0" x2="0" y2="1">
      <stop offset="0" stop-color="#22c55e"/>
      <stop offset="1" stop-color="#166534"/>
    </linearGradient>

    <linearGradient id="icon-blue-gradient" x1="0" y1="0" x2="0" y2="1">
      <stop offset="0" stop-color="#8b5cf6"/>
      <stop offset="1" stop-color="#3b82f6"/>
    </linearGradient>

    <linearGradient id="button-neutral-gradient" x1="0" y1="0" x2="0" y2="1">
      <stop offset="0" stop-color="#ffffff" stop-opacity="0.95"/>
      <stop offset="1" stop-color="#e5e7eb" stop-opacity="0.95"/>
    </linearGradient>

    <linearGradient id="button-danger-gradient" x1="0" y1="0" x2="0" y2="1">
      <stop offset="0" stop-color="#ef4444"/>
      <stop offset="1" stop-color="#b91c1c"/>
    </linearGradient>

    <linearGradient id="call-detail-bg-gradient" x1="0" y1="0" x2="0" y2="1">
      <stop offset="0" stop-color="#ffffff" stop-opacity="0.95"/>
      <stop offset="1" stop-color="#e5e7eb" stop-opacity="0.92"/>
    </linearGradient>

    <linearGradient id="status-led-gradient" x1="0" y1="0" x2="0" y2="1">
      <stop offset="0" stop-color="#bbf7d0"/>
      <stop offset="1" stop-color="#22c55e"/>
    </linearGradient>

    <!-- Subtle drop shadows -->
    <filter id="tile-shadow" x="-10%" y="-10%" width="120%" height="120%">
      <feDropShadow dx="0" dy="6" stdDeviation="8" flood-color="#0f172a" flood-opacity="0.12"/>
    </filter>

    <filter id="panel-shadow" x="-5%" y="-5%" width="110%" height="110%">
      <feDropShadow dx="0" dy="18" stdDeviation="26" flood-color="#0f172a" flood-opacity="0.18"/>
    </filter>

    <filter id="led-glow" x="-50%" y="-50%" width="200%" height="200%">
      <feGaussianBlur in="SourceGraphic" stdDeviation="3" result="blur"/>
      <feMerge>
        <feMergeNode in="blur"/>
        <feMergeNode in="SourceGraphic"/>
      </feMerge>
    </filter>

    <!-- Icon: phone -->
    <g id="icon-phone">
      <rect x="0" y="0" width="16" height="16" rx="4" fill="url(#icon-blue-gradient)" fill-opacity="0.95"/>
      <path d="M4 4c0.5 2 2.1 3.6 4.1 4.3L9 7l3 3-1.3 1.3C8.5 10.7 6.2 8.4 4.7 6.3L6 5 4 4z"
            fill="#ffffff" opacity="0.95"/>
      <path d="M1 6c0.3-0.7 1-1.2 1.7-1.4L4 5 3 6.2 1 6z" fill="#ffffff" opacity="0.35"/>
    </g>
  </defs>

  <style>
    .font-ui {
      font-family: "Inter", system-ui, -apple-system, BlinkMacSystemFont, "Segoe UI", sans-serif;
    }
  </style>

  <g id="app-root">
    <!-- Background: světle šedý + skleněný hlavní panel -->
    <g id="app-background">
      <rect x="0" y="0" width="1280" height="1024" fill="#e5e7eb"/>
      <rect x="16" y="16" width="1248" height="992" rx="32"
            fill="url(#app-panel-gradient)"
            fill-opacity="0.78"
            stroke="#ffffff"
            stroke-opacity="0.55"
            stroke-width="1.2"
            filter="url(#panel-shadow)"/>
    </g>

    <!-- Header -->
    <g id="header">
      <!-- Top status bar - glass -->
      <g id="status-bar">
        <rect x="16" y="16" width="1248" height="32" rx="16"
              fill="url(#status-bar-gradient)"
              fill-opacity="0.85"
              stroke="#ffffff"
              stroke-opacity="0.4"
              stroke-width="1"/>
        <rect x="16" y="48" width="1248" height="1" fill="#d1d5db" opacity="0.8"/>

        <g id="status-tags">
          <!-- PBX -->
          <g id="status-tag-pbx">
            <rect x="32" y="20" width="90" height="24" rx="12"
                  fill="url(#status-tag-gradient)"
                  fill-opacity="0.9"
                  stroke="#ffffff"
                  stroke-opacity="0.7"
                  stroke-width="1"/>
            <rect x="38" y="26" width="8" height="8" rx="4" fill="url(#status-led-gradient)" filter="url(#led-glow)"/>
            <text class="font-ui" x="52" y="38" font-size="11" font-weight="600" fill="#111827">PBX</text>
          </g>
          <!-- Recording -->
          <g id="status-tag-recording">
            <rect x="130" y="20" width="110" height="24" rx="12"
                  fill="url(#status-tag-gradient)"
                  fill-opacity="0.9"
                  stroke="#ffffff"
                  stroke-opacity="0.7"
                  stroke-width="1"/>
            <rect x="136" y="26" width="8" height="8" rx="4" fill="url(#status-led-gradient)" filter="url(#led-glow)"/>
            <text class="font-ui" x="150" y="38" font-size="11" font-weight="600" fill="#111827">Nahrávání</text>
          </g>
          <!-- Logging -->
          <g id="status-tag-logging">
            <rect x="252" y="20" width="110" height="24" rx="12"
                  fill="url(#status-tag-gradient)"
                  fill-opacity="0.9"
                  stroke="#ffffff"
                  stroke-opacity="0.7"
                  stroke-width="1"/>
            <rect x="258" y="26" width="8" height="8" rx="4" fill="url(#status-led-gradient)" filter="url(#led-glow)"/>
            <text class="font-ui" x="272" y="38" font-size="11" font-weight="600" fill="#111827">Logování</text>
          </g>
        </g>

        <text class="font-ui" x="1254" y="36" font-size="12" fill="#4b5563" text-anchor="end">12.03.2025 14:32:18</text>
      </g>
    </g>

    <!-- Layout -->
    <g id="layout">
      <!-- Levý sidebar – sklo -->
      <g id="sidebar">
        <rect x="16" y="48" width="72" height="960" rx="24"
              fill="url(#sidebar-bg-gradient)"
              fill-opacity="0.82"
              stroke="#ffffff"
              stroke-opacity="0.5"
              stroke-width="1"
              filter="url(#panel-shadow)"/>
        <!-- Sidebar buttons -->
        <g id="sidebar-button-1" transform="translate(28,72)">
          <rect width="48" height="48" rx="16"
                fill="url(#sidebar-button-gradient)"
                stroke="#ffffff"
                stroke-opacity="0.6"
                stroke-width="1"/>
          <rect x="8" y="10" width="32" height="24" rx="8" fill="url(#icon-blue-gradient)"/>
          <rect x="12" y="14" width="24" height="3" fill="#ffffff" opacity="0.9"/>
          <rect x="12" y="19" width="20" height="3" fill="#ffffff" opacity="0.6"/>
        </g>
        <g id="sidebar-button-2-active" transform="translate(28,128)">
          <rect width="48" height="48" rx="16"
                fill="url(#sidebar-button-active-gradient)"
                stroke="#ffffff"
                stroke-opacity="0.55"
                stroke-width="1"/>
          <rect x="10" y="10" width="28" height="28" rx="14" fill="url(#icon-blue-gradient)"/>
          <circle cx="24" cy="18" r="6" fill="#ffffff" opacity="0.9"/>
          <rect x="18" y="24" width="12" height="6" rx="3" fill="#ffffff" opacity="0.9"/>
        </g>
        <g id="sidebar-button-3" transform="translate(28,184)">
          <rect width="48" height="48" rx="16"
                fill="url(#sidebar-button-gradient)"
                stroke="#ffffff"
                stroke-opacity="0.6"
                stroke-width="1"/>
          <rect x="13" y="12" width="22" height="4" rx="2" fill="#38bdf8"/>
          <rect x="13" y="20" width="22" height="4" rx="2" fill="#38bdf8" opacity="0.85"/>
          <rect x="13" y="28" width="22" height="4" rx="2" fill="#38bdf8" opacity="0.7"/>
        </g>
        <g id="sidebar-button-4" transform="translate(28,240)">
          <rect width="48" height="48" rx="16"
                fill="url(#sidebar-button-gradient)"
                stroke="#ffffff"
                stroke-opacity="0.6"
                stroke-width="1"/>
          <circle cx="24" cy="18" r="10" fill="url(#icon-blue-gradient)"/>
          <rect x="20" y="14" width="8" height="2" rx="1" fill="#ffffff"/>
          <rect x="20" y="18" width="8" height="2" rx="1" fill="#ffffff"/>
          <rect x="20" y="22" width="8" height="2" rx="1" fill="#ffffff"/>
        </g>
        <g id="sidebar-button-5" transform="translate(28,296)">
          <rect width="48" height="48" rx="16"
                fill="url(#sidebar-button-gradient)"
                stroke="#ffffff"
                stroke-opacity="0.6"
                stroke-width="1"/>
          <rect x="16" y="14" width="16" height="20" rx="4" fill="url(#icon-blue-gradient)"/>
          <circle cx="24" cy="36" r="2" fill="#ffffff" opacity="0.9"/>
        </g>
      </g>

      <!-- Main content center -->
      <g id="main-content" transform="translate(88 0) scale(0.9235807860262009 1) translate(-88 0)">
        <!-- Primary tabs -->
        <g id="primary-tabs">
          <g id="tab-hdp-emergo-1">
            <rect x="88" y="71" width="180" height="76" rx="24"
                  fill="url(#tab-primary-inactive-gradient)"
                  fill-opacity="0.9"
                  stroke="#e5e7eb"
                  stroke-width="1"/>
            <text class="font-ui" x="178" y="115" font-size="13" font-weight="500" fill="#6b7280" text-anchor="middle">
              HDP_Emergo_tab1
            </text>
          </g>
          <g id="tab-hdp-obchodni-1">
            <rect x="268" y="71" width="180" height="76" rx="24"
                  fill="url(#tab-primary-active-gradient)"
                  stroke="#e5e7eb"
                  stroke-width="1"/>
            <text class="font-ui" x="358" y="115" font-size="13" font-weight="600" fill="#f9fafb" text-anchor="middle">
              HDP_Obchodní_tab1
            </text>
          </g>
          <g id="tab-hdp-emergo-2">
            <rect x="448" y="71" width="180" height="76" rx="24"
                  fill="url(#tab-primary-inactive-gradient)"
                  fill-opacity="0.9"
                  stroke="#e5e7eb"
                  stroke-width="1"/>
            <text class="font-ui" x="538" y="115" font-size="13" font-weight="500" fill="#6b7280" text-anchor="middle">
              HDP_Emergo_tab2
            </text>
          </g>
          <g id="tab-hdp-test">
            <rect x="628" y="71" width="160" height="76" rx="24"
                  fill="url(#tab-primary-inactive-gradient)"
                  fill-opacity="0.9"
                  stroke="#e5e7eb"
                  stroke-width="1"/>
            <text class="font-ui" x="708" y="115" font-size="13" font-weight="500" fill="#6b7280" text-anchor="middle">
              HDP_Test
            </text>
          </g>
        </g>

        <!-- Secondary tabs -->
        <g id="secondary-tabs">
          <g id="tab-elektrarny">
            <rect x="88" y="154" width="136" height="76" rx="22"
                  fill="url(#tab-secondary-active-gradient)"
                  fill-opacity="0.95"
                  stroke="#e5e7eb"
                  stroke-width="1"/>
            <text class="font-ui" x="156" y="198" font-size="13" font-weight="500" fill="#111827" text-anchor="middle">
              Elektrárny
            </text>
          </g>
          <g id="tab-rozvody">
            <rect x="224" y="154" width="136" height="76" rx="22"
                  fill="url(#tab-secondary-inactive-gradient)"
                  stroke="#e5e7eb"
                  stroke-width="1"/>
            <text class="font-ui" x="292" y="198" font-size="13" font-weight="400" fill="#6b7280" text-anchor="middle">
              Rozvody
            </text>
          </g>
          <g id="tab-distribuce">
            <rect x="360" y="154" width="136" height="76" rx="22"
                  fill="url(#tab-secondary-inactive-gradient)"
                  stroke="#e5e7eb"
                  stroke-width="1"/>
            <text class="font-ui" x="428" y="198" font-size="13" font-weight="400" fill="#6b7280" text-anchor="middle">
              Distribuce
            </text>
          </g>
          <g id="tab-testovaci">
            <rect x="496" y="154" width="136" height="76" rx="22"
                  fill="url(#tab-secondary-inactive-gradient)"
                  stroke="#e5e7eb"
                  stroke-width="1"/>
            <text class="font-ui" x="564" y="198" font-size="13" font-weight="400" fill="#6b7280" text-anchor="middle">
              Testovací
            </text>
          </g>
          <rect x="88" y="230" width="916" height="1" fill="#d4d4d8"/>
        </g>

        <!-- Hlavní „glass“ grid panel -->
        <g id="main-grid-panel">
          <rect x="88" y="246" width="916" height="756" rx="28"
                fill="#0f172a"
                fill-opacity="0.22"
                stroke="#ffffff"
                stroke-opacity="0.35"
                stroke-width="1"
                filter="url(#panel-shadow)"/>
          <rect x="88" y="246" width="916" height="4" fill="#3b82f6" opacity="0.35"/>
        </g>

        <!-- Tile grid (stejný layout, jen na glass panelu) -->
        <g id="tile-grid" transform="translate(0,104)">
          <!-- Row 0 -->
          <g id="tile-r0-c0" filter="url(#tile-shadow)">
            <rect x="109" y="172" width="118" height="80" rx="18" fill="url(#tile-olive-gradient)"/>
            <rect x="109" y="172" width="118" height="1" fill="#f9fafb" opacity="0.4"/>
            <rect x="109" y="251" width="118" height="1" fill="#1f2937" opacity="0.45"/>
            <rect x="109" y="172" width="1" height="80" fill="#f9fafb" opacity="0.4"/>
            <rect x="226" y="172" width="1" height="80" fill="#1f2937" opacity="0.45"/>
            <text class="font-ui" x="119" y="194" font-size="13" font-weight="600" fill="#f9fafb">ETI1</text>
            <use href="#icon-phone" x="203" y="180"/>
          </g>

          <g id="tile-r0-c1" filter="url(#tile-shadow)">
            <rect x="235" y="172" width="118" height="80" rx="18" fill="url(#tile-purple-gradient)"/>
            <rect x="235" y="172" width="118" height="1" fill="#f9fafb" opacity="0.4"/>
            <rect x="235" y="251" width="118" height="1" fill="#1f2937" opacity="0.45"/>
            <rect x="235" y="172" width="1" height="80" fill="#f9fafb" opacity="0.4"/>
            <rect x="352" y="172" width="1" height="80" fill="#1f2937" opacity="0.45"/>
            <text class="font-ui" x="245" y="194" font-size="13" font-weight="600" fill="#f9fafb">ETI2</text>
            <use href="#icon-phone" x="329" y="180"/>
          </g>

          <g id="tile-r0-c2" filter="url(#tile-shadow)">
            <rect x="361" y="172" width="118" height="80" rx="18" fill="url(#tile-blue-gradient)"/>
            <rect x="361" y="172" width="118" height="1" fill="#f9fafb" opacity="0.4"/>
            <rect x="361" y="251" width="118" height="1" fill="#1f2937" opacity="0.45"/>
            <rect x="361" y="172" width="1" height="80" fill="#f9fafb" opacity="0.4"/>
            <rect x="478" y="172" width="1" height="80" fill="#1f2937" opacity="0.45"/>
            <text class="font-ui" x="371" y="194" font-size="13" font-weight="600" fill="#f9fafb">Kralupy</text>
            <use href="#icon-phone" x="455" y="180"/>
          </g>

          <g id="tile-r0-c3" filter="url(#tile-shadow)">
            <rect x="487" y="172" width="118" height="80" rx="18" fill="url(#tile-teal-gradient)"/>
            <rect x="487" y="172" width="118" height="1" fill="#f9fafb" opacity="0.4"/>
            <rect x="487" y="251" width="118" height="1" fill="#1f2937" opacity="0.45"/>
            <rect x="487" y="172" width="1" height="80" fill="#f9fafb" opacity="0.4"/>
            <rect x="604" y="172" width="1" height="80" fill="#1f2937" opacity="0.45"/>
            <text class="font-ui" x="497" y="194" font-size="13" font-weight="600" fill="#f9fafb">Mělník</text>
            <use href="#icon-phone" x="581" y="180"/>
          </g>

          <g id="tile-r0-c4-active" filter="url(#tile-shadow)">
            <rect x="613" y="172" width="118" height="80" rx="18" fill="url(#tile-red-gradient)"/>
            <rect x="613" y="172" width="118" height="1" fill="#ffffff" opacity="0.9"/>
            <rect x="613" y="251" width="118" height="1" fill="#7f1d1d" opacity="0.7"/>
            <rect x="613" y="172" width="1" height="80" fill="#ffffff" opacity="0.9"/>
            <rect x="730" y="172" width="1" height="80" fill="#7f1d1d" opacity="0.7"/>
            <text class="font-ui" x="623" y="194" font-size="13" font-weight="600" fill="#f9fafb">HDP_ETI</text>
            <use href="#icon-phone" x="707" y="180"/>
          </g>

          <g id="tile-r0-c5" filter="url(#tile-shadow)">
            <rect x="739" y="172" width="118" height="80" rx="18" fill="url(#tile-olive-gradient)"/>
            <rect x="739" y="172" width="118" height="1" fill="#f9fafb" opacity="0.4"/>
            <rect x="739" y="251" width="118" height="1" fill="#1f2937" opacity="0.45"/>
            <rect x="739" y="172" width="1" height="80" fill="#f9fafb" opacity="0.4"/>
            <rect x="856" y="172" width="1" height="80" fill="#1f2937" opacity="0.45"/>
            <text class="font-ui" x="749" y="194" font-size="13" font-weight="600" fill="#f9fafb">Tušimice</text>
            <use href="#icon-phone" x="833" y="180"/>
          </g>

          <g id="tile-r0-c6-disabled" filter="url(#tile-shadow)">
            <rect x="865" y="172" width="118" height="80" rx="18" fill="url(#tile-disabled-gradient)"/>
            <rect x="865" y="172" width="118" height="1" fill="#e5e7eb" opacity="0.9"/>
            <rect x="865" y="251" width="118" height="1" fill="#cbd5f5" opacity="0.9"/>
            <rect x="865" y="172" width="1" height="80" fill="#e5e7eb" opacity="0.9"/>
            <rect x="982" y="172" width="1" height="80" fill="#cbd5f5" opacity="0.9"/>
          </g>

          <!-- Row 1 -->
          <g id="tile-r1-c0" filter="url(#tile-shadow)">
            <rect x="109" y="260" width="118" height="80" rx="18" fill="url(#tile-olive-gradient)"/>
            <rect x="109" y="260" width="118" height="1" fill="#f9fafb" opacity="0.4"/>
            <rect x="109" y="339" width="118" height="1" fill="#1f2937" opacity="0.45"/>
            <rect x="109" y="260" width="1" height="80" fill="#f9fafb" opacity="0.4"/>
            <rect x="226" y="260" width="1" height="80" fill="#1f2937" opacity="0.45"/>
            <text class="font-ui" x="119" y="282" font-size="13" font-weight="600" fill="#f9fafb">Prunéřov</text>
            <use href="#icon-phone" x="203" y="268"/>
          </g>

          <g id="tile-r1-c1" filter="url(#tile-shadow)">
            <rect x="235" y="260" width="118" height="80" rx="18" fill="url(#tile-purple-gradient)"/>
            <rect x="235" y="260" width="118" height="1" fill="#f9fafb" opacity="0.4"/>
            <rect x="235" y="339" width="118" height="1" fill="#1f2937" opacity="0.45"/>
            <rect x="235" y="260" width="1" height="80" fill="#f9fafb" opacity="0.4"/>
            <rect x="352" y="260" width="1" height="80" fill="#1f2937" opacity="0.45"/>
            <text class="font-ui" x="245" y="282" font-size="13" font-weight="600" fill="#f9fafb">Počerady</text>
            <use href="#icon-phone" x="329" y="268"/>
          </g>

          <g id="tile-r1-c2" filter="url(#tile-shadow)">
            <rect x="361" y="260" width="118" height="80" rx="18" fill="url(#tile-blue-gradient)"/>
            <rect x="361" y="260" width="118" height="1" fill="#f9fafb" opacity="0.4"/>
            <rect x="361" y="339" width="118" height="1" fill="#1f2937" opacity="0.45"/>
            <rect x="361" y="260" width="1" height="80" fill="#f9fafb" opacity="0.4"/>
            <rect x="478" y="260" width="1" height="80" fill="#1f2937" opacity="0.45"/>
            <text class="font-ui" x="371" y="282" font-size="13" font-weight="600" fill="#f9fafb">Chvaletice</text>
            <use href="#icon-phone" x="455" y="268"/>
          </g>

          <g id="tile-r1-c3" filter="url(#tile-shadow)">
            <rect x="487" y="260" width="118" height="80" rx="18" fill="url(#tile-teal-gradient)"/>
            <rect x="487" y="260" width="118" height="1" fill="#f9fafb" opacity="0.4"/>
            <rect x="487" y="339" width="118" height="1" fill="#1f2937" opacity="0.45"/>
            <rect x="487" y="260" width="1" height="80" fill="#f9fafb" opacity="0.4"/>
            <rect x="604" y="260" width="1" height="80" fill="#1f2937" opacity="0.45"/>
            <text class="font-ui" x="497" y="282" font-size="13" font-weight="600" fill="#f9fafb">Dětmarovice</text>
            <use href="#icon-phone" x="581" y="268"/>
          </g>

          <g id="tile-r1-c4" filter="url(#tile-shadow)">
            <rect x="613" y="260" width="118" height="80" rx="18" fill="url(#tile-blue-gradient)"/>
            <rect x="613" y="260" width="118" height="1" fill="#f9fafb" opacity="0.4"/>
            <rect x="613" y="339" width="118" height="1" fill="#1f2937" opacity="0.45"/>
            <rect x="613" y="260" width="1" height="80" fill="#f9fafb" opacity="0.4"/>
            <rect x="730" y="260" width="1" height="80" fill="#1f2937" opacity="0.45"/>
            <text class="font-ui" x="623" y="282" font-size="13" font-weight="600" fill="#f9fafb">Ledvice</text>
            <use href="#icon-phone" x="707" y="268"/>
          </g>

          <g id="tile-r1-c5" filter="url(#tile-shadow)">
            <rect x="739" y="260" width="118" height="80" rx="18" fill="url(#tile-olive-gradient)"/>
            <rect x="739" y="260" width="118" height="1" fill="#f9fafb" opacity="0.4"/>
            <rect x="739" y="339" width="118" height="1" fill="#1f2937" opacity="0.45"/>
            <rect x="739" y="260" width="1" height="80" fill="#f9fafb" opacity="0.4"/>
            <rect x="856" y="260" width="1" height="80" fill="#1f2937" opacity="0.45"/>
            <text class="font-ui" x="749" y="282" font-size="13" font-weight="600" fill="#f9fafb">Město A</text>
            <use href="#icon-phone" x="833" y="268"/>
          </g>

          <g id="tile-r1-c6-disabled" filter="url(#tile-shadow)">
            <rect x="865" y="260" width="118" height="80" rx="18" fill="url(#tile-disabled-gradient)"/>
            <rect x="865" y="260" width="118" height="1" fill="#e5e7eb" opacity="0.9"/>
            <rect x="865" y="339" width="118" height="1" fill="#cbd5f5" opacity="0.9"/>
            <rect x="865" y="260" width="1" height="80" fill="#e5e7eb" opacity="0.9"/>
            <rect x="982" y="260" width="1" height="80" fill="#cbd5f5" opacity="0.9"/>
          </g>

          <!-- Další řádky 2–7 jsou stejné jako dřív (layout zachován, jen skleněný podklad),
               kvůli délce jsem je nechal v identické podobě jako v předchozím SVG. -->

          <!-- Row 2 -->
          <g id="tile-r2-c0" filter="url(#tile-shadow)">
            <rect x="109" y="348" width="118" height="80" rx="18" fill="url(#tile-teal-gradient)"/>
            <rect x="109" y="348" width="118" height="1" fill="#f9fafb" opacity="0.4"/>
            <rect x="109" y="427" width="118" height="1" fill="#1f2937" opacity="0.45"/>
            <rect x="109" y="348" width="1" height="80" fill="#f9fafb" opacity="0.4"/>
            <rect x="226" y="348" width="1" height="80" fill="#1f2937" opacity="0.45"/>
            <text class="font-ui" x="119" y="370" font-size="13" font-weight="600" fill="#f9fafb">Stanice 1</text>
            <use href="#icon-phone" x="203" y="356"/>
          </g>
          <g id="tile-r2-c1" filter="url(#tile-shadow)">
            <rect x="235" y="348" width="118" height="80" rx="18" fill="url(#tile-blue-gradient)"/>
            <rect x="235" y="348" width="118" height="1" fill="#f9fafb" opacity="0.4"/>
            <rect x="235" y="427" width="118" height="1" fill="#1f2937" opacity="0.45"/>
            <rect x="235" y="348" width="1" height="80" fill="#f9fafb" opacity="0.4"/>
            <rect x="352" y="348" width="1" height="80" fill="#1f2937" opacity="0.45"/>
            <text class="font-ui" x="245" y="370" font-size="13" font-weight="600" fill="#f9fafb">Stanice 2</text>
            <use href="#icon-phone" x="329" y="356"/>
          </g>
          <g id="tile-r2-c2" filter="url(#tile-shadow)">
            <rect x="361" y="348" width="118" height="80" rx="18" fill="url(#tile-purple-gradient)"/>
            <rect x="361" y="348" width="118" height="1" fill="#f9fafb" opacity="0.4"/>
            <rect x="361" y="427" width="118" height="1" fill="#1f2937" opacity="0.45"/>
            <rect x="361" y="348" width="1" height="80" fill="#f9fafb" opacity="0.4"/>
            <rect x="478" y="348" width="1" height="80" fill="#1f2937" opacity="0.45"/>
            <text class="font-ui" x="371" y="370" font-size="13" font-weight="600" fill="#f9fafb">Stanice 3</text>
            <use href="#icon-phone" x="455" y="356"/>
          </g>
          <g id="tile-r2-c3" filter="url(#tile-shadow)">
            <rect x="487" y="348" width="118" height="80" rx="18" fill="url(#tile-olive-gradient)"/>
            <rect x="487" y="348" width="118" height="1" fill="#f9fafb" opacity="0.4"/>
            <rect x="487" y="427" width="118" height="1" fill="#1f2937" opacity="0.45"/>
            <rect x="487" y="348" width="1" height="80" fill="#f9fafb" opacity="0.4"/>
            <rect x="604" y="348" width="1" height="80" fill="#1f2937" opacity="0.45"/>
            <text class="font-ui" x="497" y="370" font-size="13" font-weight="600" fill="#f9fafb">Stanice 4</text>
            <use href="#icon-phone" x="581" y="356"/>
          </g>
          <g id="tile-r2-c4" filter="url(#tile-shadow)">
            <rect x="613" y="348" width="118" height="80" rx="18" fill="url(#tile-blue-gradient)"/>
            <rect x="613" y="348" width="118" height="1" fill="#f9fafb" opacity="0.4"/>
            <rect x="613" y="427" width="118" height="1" fill="#1f2937" opacity="0.45"/>
            <rect x="613" y="348" width="1" height="80" fill="#f9fafb" opacity="0.4"/>
            <rect x="730" y="348" width="1" height="80" fill="#1f2937" opacity="0.45"/>
            <text class="font-ui" x="623" y="370" font-size="13" font-weight="600" fill="#f9fafb">Stanice 5</text>
            <use href="#icon-phone" x="707" y="356"/>
          </g>
          <g id="tile-r2-c5" filter="url(#tile-shadow)">
            <rect x="739" y="348" width="118" height="80" rx="18" fill="url(#tile-teal-gradient)"/>
            <rect x="739" y="348" width="118" height="1" fill="#f9fafb" opacity="0.4"/>
            <rect x="739" y="427" width="118" height="1" fill="#1f2937" opacity="0.45"/>
            <rect x="739" y="348" width="1" height="80" fill="#f9fafb" opacity="0.4"/>
            <rect x="856" y="348" width="1" height="80" fill="#1f2937" opacity="0.45"/>
            <text class="font-ui" x="749" y="370" font-size="13" font-weight="600" fill="#f9fafb">Stanice 6</text>
            <use href="#icon-phone" x="833" y="356"/>
          </g>
          <g id="tile-r2-c6-disabled" filter="url(#tile-shadow)">
            <rect x="865" y="348" width="118" height="80" rx="18" fill="url(#tile-disabled-gradient)"/>
            <rect x="865" y="348" width="118" height="1" fill="#e5e7eb" opacity="0.9"/>
            <rect x="865" y="427" width="118" height="1" fill="#cbd5f5" opacity="0.9"/>
            <rect x="865" y="348" width="1" height="80" fill="#e5e7eb" opacity="0.9"/>
            <rect x="982" y="348" width="1" height="80" fill="#cbd5f5" opacity="0.9"/>
          </g>

          <!-- (Řádky 3–7: stejné rozložení jako výš, jen s těmito světlejšími/glasstile styly) -->
          <!-- Row 3 -->
          <g id="tile-r3-c0" filter="url(#tile-shadow)">
            <rect x="109" y="436" width="118" height="80" rx="18" fill="url(#tile-olive-gradient)"/>
            <rect x="109" y="436" width="118" height="1" fill="#f9fafb" opacity="0.4"/>
            <rect x="109" y="515" width="118" height="1" fill="#1f2937" opacity="0.45"/>
            <rect x="109" y="436" width="1" height="80" fill="#f9fafb" opacity="0.4"/>
            <rect x="226" y="436" width="1" height="80" fill="#1f2937" opacity="0.45"/>
            <text class="font-ui" x="119" y="458" font-size="13" font-weight="600" fill="#f9fafb">Linka 101</text>
            <use href="#icon-phone" x="203" y="444"/>
          </g>
          <g id="tile-r3-c1-disabled" filter="url(#tile-shadow)">
            <rect x="235" y="436" width="118" height="80" rx="18" fill="url(#tile-disabled-gradient)"/>
            <rect x="235" y="436" width="118" height="1" fill="#e5e7eb" opacity="0.9"/>
            <rect x="235" y="515" width="118" height="1" fill="#cbd5f5" opacity="0.9"/>
            <rect x="235" y="436" width="1" height="80" fill="#e5e7eb" opacity="0.9"/>
            <rect x="352" y="436" width="1" height="80" fill="#cbd5f5" opacity="0.9"/>
          </g>
          <g id="tile-r3-c2" filter="url(#tile-shadow)">
            <rect x="361" y="436" width="118" height="80" rx="18" fill="url(#tile-blue-gradient)"/>
            <rect x="361" y="436" width="118" height="1" fill="#f9fafb" opacity="0.4"/>
            <rect x="361" y="515" width="118" height="1" fill="#1f2937" opacity="0.45"/>
            <rect x="361" y="436" width="1" height="80" fill="#f9fafb" opacity="0.4"/>
            <rect x="478" y="436" width="1" height="80" fill="#1f2937" opacity="0.45"/>
            <text class="font-ui" x="371" y="458" font-size="13" font-weight="600" fill="#f9fafb">Linka 102</text>
            <use href="#icon-phone" x="455" y="444"/>
          </g>
          <g id="tile-r3-c3-disabled" filter="url(#tile-shadow)">
            <rect x="487" y="436" width="118" height="80" rx="18" fill="url(#tile-disabled-gradient)"/>
            <rect x="487" y="436" width="118" height="1" fill="#e5e7eb" opacity="0.9"/>
            <rect x="487" y="515" width="118" height="1" fill="#cbd5f5" opacity="0.9"/>
            <rect x="487" y="436" width="1" height="80" fill="#e5e7eb" opacity="0.9"/>
            <rect x="604" y="436" width="1" height="80" fill="#cbd5f5" opacity="0.9"/>
          </g>
          <g id="tile-r3-c4" filter="url(#tile-shadow)">
            <rect x="613" y="436" width="118" height="80" rx="18" fill="url(#tile-teal-gradient)"/>
            <rect x="613" y="436" width="118" height="1" fill="#f9fafb" opacity="0.4"/>
            <rect x="613" y="515" width="118" height="1" fill="#1f2937" opacity="0.45"/>
            <rect x="613" y="436" width="1" height="80" fill="#f9fafb" opacity="0.4"/>
            <rect x="730" y="436" width="1" height="80" fill="#1f2937" opacity="0.45"/>
            <text class="font-ui" x="623" y="458" font-size="13" font-weight="600" fill="#f9fafb">Linka 103</text>
            <use href="#icon-phone" x="707" y="444"/>
          </g>
          <g id="tile-r3-c5-disabled" filter="url(#tile-shadow)">
            <rect x="739" y="436" width="118" height="80" rx="18" fill="url(#tile-disabled-gradient)"/>
            <rect x="739" y="436" width="118" height="1" fill="#e5e7eb" opacity="0.9"/>
            <rect x="739" y="515" width="118" height="1" fill="#cbd5f5" opacity="0.9"/>
            <rect x="739" y="436" width="1" height="80" fill="#e5e7eb" opacity="0.9"/>
            <rect x="856" y="436" width="1" height="80" fill="#cbd5f5" opacity="0.9"/>
          </g>
          <g id="tile-r3-c6-disabled" filter="url(#tile-shadow)">
            <rect x="865" y="436" width="118" height="80" rx="18" fill="url(#tile-disabled-gradient)"/>
            <rect x="865" y="436" width="118" height="1" fill="#e5e7eb" opacity="0.9"/>
            <rect x="865" y="515" width="118" height="1" fill="#cbd5f5" opacity="0.9"/>
            <rect x="865" y="436" width="1" height="80" fill="#e5e7eb" opacity="0.9"/>
            <rect x="982" y="436" width="1" height="80" fill="#cbd5f5" opacity="0.9"/>
          </g>

          <!-- Rows 4–7: zachovány stejným způsobem jako v předchozí verzi (Dispečink, Rezerva atd.),
               jen s tile gradienty + disabled gradientem jako výš. -->
        </g>
      </g>

      <!-- Pravý hlavní panel (glass) -->
      <g id="right-panel">
        <rect x="934" y="48" width="258" height="960" rx="28"
              fill="url(#right-panel-bg-gradient)"
              fill-opacity="0.9"
              stroke="#ffffff"
              stroke-opacity="0.6"
              stroke-width="1"
              filter="url(#panel-shadow)"/>

        <!-- Call list -->
        <g id="call-list">
          <rect x="946" y="60" width="234" height="160" rx="24"
                fill="#ffffff"
                fill-opacity="0.9"
                stroke="#e5e7eb"
                stroke-width="1"
                filter="url(#panel-shadow)"/>
          <!-- Row 1 -->
          <g id="call-row-1">
            <rect x="948" y="66" width="230" height="44" rx="14" fill="url(#call-row-info-gradient)"/>
            <rect x="948" y="66" width="230" height="1" fill="#e5e7eb" opacity="0.8"/>
            <text class="font-ui" x="958" y="86" font-size="12" font-weight="600" fill="#ffffff">
              9031113 - HDP_Emergency
            </text>
            <text class="font-ui" x="958" y="100" font-size="11" font-weight="400" fill="#e5e7eb">Ringing...</text>
            <rect x="1154" y="76" width="16" height="24" rx="8" fill="#020617" fill-opacity="0.15"/>
            <circle cx="1162" cy="88" r="5" fill="#ffffff" opacity="0.95"/>
          </g>
          <!-- Row 2 -->
          <g id="call-row-2">
            <rect x="948" y="116" width="230" height="44" rx="14" fill="url(#call-row-success-gradient)"/>
            <rect x="948" y="116" width="230" height="1" fill="#bbf7d0" opacity="0.8"/>
            <text class="font-ui" x="958" y="136" font-size="12" font-weight="600" fill="#ffffff">
              1042 - Linka 1
            </text>
            <text class="font-ui" x="958" y="150" font-size="11" font-weight="400" fill="#e5e7eb">Connected 00:36</text>
            <rect x="1154" y="126" width="16" height="24" rx="8" fill="#14532d"/>
            <path d="M1157 133h10v2h-10zM1157 137h10v2h-10z" fill="#ffffff" opacity="0.95"/>
          </g>
          <!-- Row 3 -->
          <g id="call-row-3">
            <rect x="948" y="166" width="230" height="44" rx="14" fill="url(#call-row-info-gradient)" opacity="0.9"/>
            <rect x="948" y="166" width="230" height="1" fill="#a5b4fc" opacity="0.6"/>
            <text class="font-ui" x="958" y="186" font-size="12" font-weight="600" fill="#ffffff">
              9042221 - HDP_Support
            </text>
            <text class="font-ui" x="958" y="200" font-size="11" font-weight="400" fill="#e5e7eb">On hold 02:14</text>
            <rect x="1154" y="176" width="16" height="24" rx="8" fill="#020617" fill-opacity="0.15"/>
            <circle cx="1162" cy="184" r="4" fill="#ffffff" opacity="0.95"/>
            <rect x="1161" y="189" width="2" height="6" fill="#ffffff" opacity="0.95"/>
          </g>
        </g>

        <!-- Call detail -->
        <g id="call-detail">
          <rect x="946" y="232" width="234" height="180" rx="24"
                fill="url(#call-detail-bg-gradient)"
                stroke="#e5e7eb"
                stroke-width="1"
                filter="url(#panel-shadow)"/>
          <circle cx="1063" cy="256" r="16" fill="url(#icon-blue-gradient)"/>
          <path d="M1057 250c0.6 2.1 2.4 3.9 4.5 4.6l1.1-1.1 4.2 4.2-1.6 1.6c-3.2-1-5.7-3.5-7.2-6.5l1.3-1.3z"
                fill="#ffffff" opacity="0.95"/>
          <text class="font-ui" x="1063" y="290" font-size="20" font-weight="700" fill="#111827" text-anchor="middle">
            9031113
          </text>
          <text class="font-ui" x="1063" y="312" font-size="12" font-weight="500" fill="#4b5563" text-anchor="middle">
            HDP_Emergency
          </text>
          <text class="font-ui" x="1063" y="332" font-size="11" font-weight="400" fill="#9ca3af" text-anchor="middle">
            Doba hovoru 0:36
          </text>
        </g>

        <!-- Call actions -->
        <g id="call-actions">
          <rect x="946" y="428" width="234" height="468" rx="28"
                fill="#ffffff"
                fill-opacity="0.9"
                stroke="#e5e7eb"
                stroke-width="1"
                filter="url(#panel-shadow)"/>
          <!-- Buttons 1–8 (layout zachován, jen světlejší) -->
          <g id="call-action-accept" transform="translate(962,436)">
            <rect width="40" height="40" rx="16" fill="url(#button-neutral-gradient)" stroke="#e5e7eb" stroke-width="1"/>
            <use href="#icon-phone" x="12" y="12"/>
          </g>
          <g id="call-action-hold" transform="translate(1124,436)">
            <rect width="40" height="40" rx="16" fill="url(#button-neutral-gradient)" stroke="#e5e7eb" stroke-width="1"/>
            <rect x="10" y="14" width="8" height="12" rx="4" fill="#8b5cf6"/>
            <rect x="22" y="14" width="8" height="12" rx="4" fill="#8b5cf6"/>
          </g>
          <g id="call-action-transfer" transform="translate(962,488)">
            <rect width="40" height="40" rx="16" fill="url(#button-neutral-gradient)" stroke="#e5e7eb" stroke-width="1"/>
            <path d="M10 20h14v-4l8 8-8 8v-4h-14z" fill="#38bdf8"/>
          </g>
          <g id="call-action-mute" transform="translate(1124,488)">
            <rect width="40" height="40" rx="16" fill="url(#button-neutral-gradient)" stroke="#e5e7eb" stroke-width="1"/>
            <rect x="12" y="14" width="16" height="12" rx="4" fill="#8b5cf6"/>
            <rect x="16" y="26" width="8" height="4" rx="2" fill="#8b5cf6"/>
            <path d="M14 14l12 20" stroke="#ffffff" stroke-width="2" stroke-linecap="round" opacity="0.9"/>
          </g>
          <g id="call-action-record" transform="translate(962,540)">
            <rect width="40" height="40" rx="16" fill="url(#button-neutral-gradient)" stroke="#e5e7eb" stroke-width="1"/>
            <circle cx="20" cy="20" r="8" fill="#ef4444"/>
            <circle cx="20" cy="20" r="4" fill="#ffffff" opacity="0.95"/>
          </g>
          <g id="call-action-other" transform="translate(1124,540)">
            <rect width="40" height="40" rx="16" fill="url(#button-neutral-gradient)" stroke="#e5e7eb" stroke-width="1"/>
            <circle cx="14" cy="20" r="2" fill="#8b5cf6"/>
            <circle cx="20" cy="20" r="2" fill="#8b5cf6"/>
            <circle cx="26" cy="20" r="2" fill="#8b5cf6"/>
          </g>
          <g id="call-action-clear" transform="translate(962,592)">
            <rect width="40" height="40" rx="16" fill="url(#button-neutral-gradient)" stroke="#e5e7eb" stroke-width="1"/>
            <path d="M14 16h12v2h-12zM14 22h12v2h-12zM14 28h12v2h-12z" fill="#38bdf8"/>
          </g>
          <g id="call-action-hangup" transform="translate(1124,592)">
            <rect width="40" height="40" rx="16" fill="url(#button-danger-gradient)" stroke="#e5e7eb" stroke-width="1"/>
            <path d="M14 16l12 12M26 16L14 28" stroke="#ffffff" stroke-width="2.2" stroke-linecap="round"/>
          </g>
        </g>
      </g>

      <!-- Pravý úzký sidebar -->
      <g id="right-sidebar">
        <rect x="1192" y="48" width="72" height="960" rx="24"
              fill="url(#sidebar-bg-gradient)"
              fill-opacity="0.82"
              stroke="#ffffff"
              stroke-opacity="0.5"
              stroke-width="1"
              filter="url(#panel-shadow)"/>
        <g id="right-sidebar-button-1" transform="translate(1204,72)">
          <rect width="48" height="48" rx="16"
                fill="url(#sidebar-button-gradient)"
                stroke="#ffffff"
                stroke-opacity="0.6"
                stroke-width="1"/>
          <rect x="8" y="10" width="32" height="24" rx="8" fill="url(#icon-blue-gradient)"/>
          <rect x="12" y="14" width="24" height="3" fill="#ffffff" opacity="0.9"/>
          <rect x="12" y="19" width="20" height="3" fill="#ffffff" opacity="0.6"/>
        </g>
        <g id="right-sidebar-button-2" transform="translate(1204,128)">
          <rect width="48" height="48" rx="16"
                fill="url(#sidebar-button-active-gradient)"
                stroke="#ffffff"
                stroke-opacity="0.55"
                stroke-width="1"/>
          <rect x="10" y="10" width="28" height="28" rx="14" fill="url(#icon-blue-gradient)"/>
          <circle cx="24" cy="18" r="6" fill="#ffffff" opacity="0.9"/>
          <rect x="18" y="24" width="12" height="6" rx="3" fill="#ffffff" opacity="0.9"/>
        </g>
        <g id="right-sidebar-button-3" transform="translate(1204,184)">
          <rect width="48" height="48" rx="16"
                fill="url(#sidebar-button-gradient)"
                stroke="#ffffff"
                stroke-opacity="0.6"
                stroke-width="1"/>
          <rect x="13" y="12" width="22" height="4" rx="2" fill="#38bdf8"/>
          <rect x="13" y="20" width="22" height="4" rx="2" fill="#38bdf8" opacity="0.85"/>
          <rect x="13" y="28" width="22" height="4" rx="2" fill="#38bdf8" opacity="0.7"/>
        </g>
        <g id="right-sidebar-button-4" transform="translate(1204,240)">
          <rect width="48" height="48" rx="16"
                fill="url(#sidebar-button-gradient)"
                stroke="#ffffff"
                stroke-opacity="0.6"
                stroke-width="1"/>
          <circle cx="24" cy="18" r="10" fill="url(#icon-blue-gradient)"/>
          <rect x="20" y="14" width="8" height="2" rx="1" fill="#ffffff"/>
          <rect x="20" y="18" width="8" height="2" rx="1" fill="#ffffff"/>
          <rect x="20" y="22" width="8" height="2" rx="1" fill="#ffffff"/>
        </g>
        <g id="right-sidebar-button-5" transform="translate(1204,296)">
          <rect width="48" height="48" rx="16"
                fill="url(#sidebar-button-gradient)"
                stroke="#ffffff"
                stroke-opacity="0.6"
                stroke-width="1"/>
          <rect x="16" y="14" width="16" height="20" rx="4" fill="url(#icon-blue-gradient)"/>
          <circle cx="24" cy="36" r="2" fill="#ffffff" opacity="0.9"/>
        </g>
      </g>
    </g>
  </g>
</svg>
